<?xml version="1.0" encoding="utf-8"?>
<!-- Generator: Adobe Illustrator 24.1.0, SVG Export Plug-In . SVG Version: 6.00 Build 0)  -->
<svg version="1.1" id="Capa_1" xmlns="http://www.w3.org/2000/svg" xmlns:xlink="http://www.w3.org/1999/xlink" x="0px" y="0px"
	 viewBox="0 0 597 555.4" enable-background="new 0 0 597 555.4" xml:space="preserve">
<g id="Nombre">
	<polygon fill="#FFFFFF" points="19.1,390.4 31,401.1 31,455.8 19.1,455.8 31,468.2 31,542.1 51.3,521.8 51.3,469.9 62,469.9 
		73.9,455.8 51.9,455.8 51.9,404.5 71.6,404.5 84.3,391.8 	"/>
	<path fill="#FFFFFF" d="M86.8,542.1v-72.8l-7.3-6.2h7.3v-35.5c0,0-1.7-13.5,18-15.2c0,0,16.4,2.3,16.4,12.4h-14.7V462h11.3l3.4,7.3
		H106v54.1L86.8,542.1z"/>
	<path fill="#FFFFFF" d="M181,542.1h-50.2c0,0-10.7-4.5-9.6-23.7c1.1-19.2,3.9-20.9,13-23.1h21.4l-2.8,7.3h-11c0,0-3.7,1.1-3.1,16.1
		c0.6,14.9,4.5,14.7,4.5,14.7h7.9v-64c0,0,0-5.6-6.7-4.5c0,0-3.1,0-3.4,12.4l-19.7,17.5v-25.4c0,0,4.5-11.8,24.3-11.6
		c19.7,0.3,21.4,2.5,26.2,10.4v23.1l9.3,9.9h-10.4v31.9L181,542.1z"/>
	<path fill="#FFFFFF" d="M474.1,542.1h-50.2c0,0-10.7-4.5-9.6-23.7c1.1-19.2,3.9-20.9,13-23.1h21.4l-2.8,7.3h-11
		c0,0-3.7,1.1-3.1,16.1c0.6,15,4.5,14.7,4.5,14.7h7.9v-64c0,0,0-5.6-6.7-4.5c0,0-3.1,0-3.4,12.4l-19.7,17.5v-25.4
		c0,0,4.5-11.8,24.3-11.6c19.7,0.3,21.4,2.5,26.2,10.4v23.1l9.3,9.9h-10.5v31.9L474.1,542.1z"/>
	<path fill="#FFFFFF" d="M177.3,457.8l9.3,9.8v74.5l18.2-16.8v-58c0,0,11.6-2.7,12.5,4.7c0.8,7.4,0,27.9,0,27.9l16.7-15v-19
		c0,0-2.3-8.4-11.2-8.1L177.3,457.8L177.3,457.8z"/>
	<path fill="#FFFFFF" d="M234,457.8l10.2,9.8v73.6l18.1-18.1v-57.8c0,0,10.7-1.7,12.2,5.3s0,69.6,0,69.6l16.7-16.7v-58.6
		c0,0,12.7-1.5,13.3,6.6c0.6,8,0,67.9,0,67.9l16-16v-54.5c0,0,1-9.9-12.2-11.1H234z"/>
	<polygon fill="#FFFFFF" points="356.4,389.6 372.4,405.5 381,405.5 381,541.2 400.9,521.2 400.9,405.1 408.9,405.1 424.5,389.4 	
		"/>
	<polygon fill="#FFFFFF" points="479.1,457.8 479.1,541.2 497.2,523.1 497.2,457.8 	"/>
	<rect x="479.1" y="444.6" fill="#FFFFFF" width="18.2" height="7.1"/>
	<path fill="#FFFFFF" d="M574.1,541.2h-55c0,0-5.4-2.7-6.5-17.7v-54.1c0,0,3.4-10.2,11.6-11.6h20.9V431l16.6-16.6v43.4h8.7l-6,6
		l-2.3,2.3l0.3,67.6h-18v-68.4c0,0-13.5-0.7-13.5,6.6v53.3c0,0-1.8,5.6,3.6,6.2l27.2,0.2l10.9,9.7"/>
</g>
<g>
	<path fill="#EC1B24" d="M119.9,70.1c-2.1,27.8-5.5,145.8,75.2,251.8c43,56.4,129.5,53.4,168.4-5.9c9.7-14.8,19.1-31.9,27.4-51.3
		c0.9-2.1,3.9-1.5,4,0.7c0.2,4.4,0.3,9.7,0.2,14.2c-0.1,2.1,2.6,3,3.8,1.3c12.4-17,45.3-69.5,32-131.7c-0.4-1.7,1.4-3.1,2.9-2.3
		c4.7,2.2,12.8,6.5,18.3,12.1c1.4,1.4,3.7,0.3,3.6-1.6c-0.7-10.3-5.2-32.3-29.5-55.1c-1.2-1.2-0.7-3.2,1-3.6c3.5-0.7,9-1.4,15.6-0.5
		c2.2,0.3,3.4-2.5,1.5-3.8c-14-9.7-45.2-26.4-83.5-17.1c-1.9,0.5-3.4-1.8-2.1-3.3c7.8-9.7,24.9-30.9,35.1-42.2
		c1.4-1.6-0.1-4.1-2.2-3.4c-23,7.1-90.7,29.8-114,56.5c-19.9,22.9-34.5,32.5-41.3,36.1c-1.8,1-3.7-0.9-2.9-2.7
		c1-2.2,2.7-5.3,5.4-9.9c0.9-1.5-0.4-3.5-2.2-3.2c-14.1,2.3-57.8,12.3-80,48.5c-1,1.7,0.6,3.7,2.5,3.1c5.5-1.8,13.6-2.3,18.6,7.8
		c0.6,1.3,2.4,1.6,3.4,0.6c3.8-3.9,12.7-9.8,26.8,0.2c0.5,0.4,1.2,0.5,1.9,0.3c2.8-0.9,11.3-3.2,18.2,0.5c1.5,0.8,1.5,2.8,0.1,3.7
		c-4.1,2.4-12.9,6.1-26.3,4.2c-1.9-0.3-3.1,2-1.9,3.5c0.6,0.7,1.2,1.4,1.9,2.1c1.3,1.3,0.5,3.5-1.3,3.6c-5.4,0.4-14.2,0.2-22.1-4
		c-1.9-1-4,1.1-2.8,3c3.8,5.9,14.3,13.3,44,8.7c1.5-0.2,2.3-1.9,1.5-3.2l-1-1.6c-0.9-1.5,0.2-3.4,2-3.2l11.3,1
		c1.7,0.1,2.5,2.2,1.4,3.5c-5.9,6.8-21,22.1-35.9,19.2c-10.6-2.1-18.2-4-22.7-5.3c-1.9-0.5-3.4,1.6-2.3,3.2
		c8,11.5,31.5,38.2,68.8,23.7c1.4-0.6,3,0.5,2.9,2.1l0,0c-0.1,1.7,1.8,2.8,3.2,1.9l20.3-13c1.5-1,3.5,0.3,3.2,2.1l-1.4,8.7
		c-0.3,1.8,1.6,3.1,3.2,2.1l24.2-14.4c1-0.6,2.4-0.3,2.9,0.8c3.4,6.3,11.3,28.7-22.1,66c-1.3,1.5,0,3.8,2,3.5l4-0.7
		c2.1-0.4,3.4,2.3,1.7,3.7c-9.7,7.8-29.8,20.9-47.6,13.1c-24.2-10.7-84-97.9-99.7-173.2c-0.3-1.2,0.6-2.4,1.9-2.5l16-1.2
		c1.6-0.1,2.5-1.9,1.6-3.2l-35.3-55C122.6,67.4,120,68.1,119.9,70.1z"/>
	<path fill="#F9F9F9" d="M264.7,117.5c0,0,16.1-10.9,25.7-18s36.6-3.2,36.6-3.2S301.4,115.6,264.7,117.5z"/>
</g>
</svg>
